<?xml version="1.0" encoding="utf-8"?>
<svg height="24px" viewBox="0 -960 960 960" width="24px" fill="#FFFFFF" xmlns="http://www.w3.org/2000/svg">
  <path d="M 480 -240.178 L 292.345 -127.132 C 284.055 -121.857 275.388 -119.596 266.344 -120.35 C 257.301 -121.103 249.387 -124.118 242.605 -129.393 C 235.822 -134.669 230.546 -141.263 226.778 -149.176 C 223.01 -157.089 222.256 -165.945 224.517 -175.742 L 274.257 -389.398 L 108.081 -532.965 C 100.544 -539.748 95.834 -547.473 93.95 -556.14 C 92.066 -564.807 92.631 -573.285 95.646 -581.575 C 98.66 -589.865 103.182 -596.648 109.211 -601.923 C 115.24 -607.199 123.53 -610.59 134.081 -612.097 L 353.389 -631.315 L 438.173 -832.536 C 441.941 -841.579 447.782 -848.362 455.695 -852.884 C 463.608 -857.406 471.71 -859.667 480 -859.667 C 488.29 -859.667 496.392 -857.406 504.305 -852.884 C 512.218 -848.362 518.059 -841.579 521.827 -832.536 L 606.611 -631.315 L 825.919 -612.097 C 836.47 -610.59 844.76 -607.199 850.789 -601.923 C 856.818 -596.648 861.34 -589.865 864.354 -581.575 C 867.369 -573.285 867.934 -564.807 866.05 -556.14 C 864.166 -547.473 859.456 -539.748 851.919 -532.965 L 685.743 -389.398 L 735.483 -175.742 C 737.744 -165.945 736.99 -157.089 733.222 -149.176 C 729.454 -141.263 724.178 -134.669 717.395 -129.393 C 710.613 -124.118 702.699 -121.103 693.656 -120.35 C 684.612 -119.596 675.945 -121.857 667.655 -127.132 L 480 -240.178 Z" style=""/>
</svg>