<?xml version="1.0" encoding="utf-8"?>
<svg height="24px" viewBox="0 -960 960 960" width="24px" fill="#FFFFFF" xmlns="http://www.w3.org/2000/svg">
  <path d="M 480 -373.213 C 471.472 -373.213 464.324 -376.098 458.556 -381.866 C 452.787 -387.636 449.903 -394.784 449.903 -403.311 L 449.903 -613.238 C 417.8 -613.238 386.95 -619.382 357.355 -631.673 C 327.76 -643.962 301.675 -661.393 279.103 -683.966 C 256.529 -706.538 239.224 -732.623 227.185 -762.218 C 215.146 -791.814 209.126 -822.664 209.126 -854.766 L 209.126 -884.863 C 209.126 -893.392 212.011 -900.54 217.779 -906.308 C 223.549 -912.076 230.697 -914.961 239.224 -914.961 L 269.321 -914.961 C 300.923 -914.961 331.521 -908.816 361.117 -896.526 C 390.712 -884.237 416.796 -866.806 439.369 -844.233 C 454.919 -828.683 467.835 -811.628 478.119 -793.067 C 488.402 -774.508 496.303 -754.694 501.82 -733.626 C 504.329 -737.137 507.088 -740.523 510.097 -743.783 C 513.107 -747.044 516.367 -750.431 519.879 -753.941 C 542.451 -776.514 568.536 -793.945 598.131 -806.234 C 627.726 -818.525 658.575 -824.669 690.679 -824.669 L 720.776 -824.669 C 729.303 -824.669 736.451 -821.786 742.221 -816.016 C 747.989 -810.248 750.874 -803.1 750.874 -794.572 L 750.874 -764.476 C 750.874 -732.372 744.728 -701.523 732.439 -671.926 C 720.15 -642.331 702.719 -616.248 680.146 -593.674 C 657.572 -571.101 631.614 -553.795 602.269 -541.757 C 572.924 -529.719 542.2 -523.698 510.097 -523.698 L 510.097 -403.311 C 510.097 -394.784 507.213 -387.636 501.444 -381.866 C 495.676 -376.098 488.528 -373.213 480 -373.213 Z" style=""/>
  <path d="M 478.564 -34.764 C 435.106 -34.764 398.24 -49.9 367.969 -80.173 C 337.694 -110.445 322.561 -147.311 322.561 -190.768 C 322.561 -219.369 327.296 -248.155 336.767 -277.127 C 346.239 -306.1 358.497 -332.378 373.54 -355.964 C 388.584 -379.552 405.39 -398.774 423.962 -413.631 C 442.533 -428.488 460.735 -435.918 478.564 -435.918 C 496.764 -435.918 515.059 -428.488 533.444 -413.631 C 551.83 -398.774 568.544 -379.552 583.588 -355.964 C 598.63 -332.378 610.888 -306.1 620.359 -277.127 C 629.832 -248.155 634.567 -219.369 634.567 -190.768 C 634.567 -147.311 619.432 -110.445 589.159 -80.173 C 558.887 -49.9 522.021 -34.764 478.564 -34.764 Z M 500.849 -101.623 C 507.164 -101.623 512.458 -103.759 516.73 -108.031 C 521.001 -112.303 523.136 -117.595 523.136 -123.911 C 523.136 -130.224 521.001 -135.517 516.73 -139.788 C 512.458 -144.06 507.164 -146.196 500.849 -146.196 C 482.278 -146.196 466.492 -152.697 453.49 -165.696 C 440.492 -178.697 433.991 -194.483 433.991 -213.056 C 433.991 -219.369 431.856 -224.662 427.585 -228.933 C 423.313 -233.205 418.019 -235.341 411.706 -235.341 C 405.39 -235.341 400.097 -233.205 395.825 -228.933 C 391.554 -224.662 389.419 -219.369 389.419 -213.056 C 389.419 -182.225 400.284 -155.947 422.012 -134.217 C 443.741 -112.487 470.021 -101.623 500.849 -101.623 Z" style="transform-box: fill-box; transform-origin: 50% 50%;"/>
</svg>